A hardened American gunslinger is repeatedly thwarted in his attempts to mount a showdown in a friendly town in Canada where no one seems to understand or appreciate the brutal code of the American Wild West.
 
http://www.imdb.com/title/tt1376195/

Subs: Dutch, English (srt).

De gevaarlijke en beruchte 'The Montana Kid' begeeft zich naar het kleine Canadese dorpje Barclay's Brush. Het dorpje heeft slechts zeventien inwoners. 'The Kid' krijgt al meteen een woordenwisseling met Jack (een smid), die hem uitdaagt voor een pistoolgevecht. Dit lijkt erg moeilijk te worden, aangezien het dorpje niet geschikt lijkt te zijn voor een pistoolgevecht, en er niet eens werkende pistolen te vinden zijn.
 
http://www.moviemeter.nl/film/61325

Ondertitels: Engels, Nederlands.

General
Complete name                    : Gunless-AC3-BRRip 2010 TBS\Gunless-AC3-BRRip 2010 TBS.avi
Format                           : AVI
Format/Info                      : Audio Video Interleave
File size                        : 1.33 GiB
Duration                         : 1h 29mn
Overall bit rate                 : 2 138 Kbps
Writing application              : VirtualDubMod 1.5.4.1 (build 2178/release)
Writing library                  : VirtualDubMod build 2178/release
Source                           : Gunless 2010 LiMiTED 720p BluRay x264-PUZZLE 

Video
ID                               : 0
Format                           : MPEG-4 Visual
Format profile                   : Simple@L3
Format settings, BVOP            : No
Format settings, QPel            : No
Format settings, GMC             : No warppoints
Format settings, Matrix          : Default (H.263)
Codec ID                         : XVID
Codec ID/Hint                    : XviD
Duration                         : 1h 29mn
Bit rate                         : 1 680 Kbps
Width                            : 720 pixels
Height                           : 304 pixels
Display aspect ratio             : 2.35:1
Frame rate                       : 23.976 fps
Resolution                       : 8 bits
Colorimetry                      : 4:2:0
Scan type                        : Progressive
Bits/(Pixel*Frame)               : 0.320
Stream size                      : 1.05 GiB (79%)
Writing library                  : XviD 1.1.2 (UTC 2006-11-01)

Audio
ID                               : 1
Format                           : AC-3
Format/Info                      : Audio Coding 3
Codec ID                         : 2000
Duration                         : 1h 29mn
Bit rate mode                    : Constant
Bit rate                         : 448 Kbps
Channel(s)                       : 6 channels
Channel positions                : Front: L C R, Surround: L R, LFE
Sampling rate                    : 48.0 KHz
Stream size                      : 285 MiB (21%)
Alignment                        : Split accross interleaves
Interleave, duration             : 42 ms (1.00 video frame)
Interleave, preload duration     : 500 ms

Blackbeard  TBS

Enjoy..